# xmcd
#
# Track frame offsets:
#	150
#	25260
#	52938
#	76900
#	95320
#	130080
#	157593
#	186098
#	200651
#	230434
#	243006
#
# Disc length: 3573 seconds
#
# Revision: 0
# Processed by: cddbd v1.5.2PL0 Copyright (c) Steve Scherf et al.
# Submitted via: EasyCDDAExtractor 16.1.0.1
#
DISCID=770df30b
DTITLE=Jayme Stone - The Utmost
DYEAR=2007
DGENRE=Bluegrass
TTITLE0=Sister
TTITLE1=Local Motion
TTITLE2=The Up And Up
TTITLE3=Garuda
TTITLE4=An Apple In The Dark
TTITLE5=The Utmost
TTITLE6=Tungsten (A Lightbulb Symphony)
TTITLE7=1935
TTITLE8=Dirge
TTITLE9=Humming And Hawwing
TTITLE10=Midnight On The Water
EXTD=
EXTT0=
EXTT1=
EXTT2=
EXTT3=
EXTT4=
EXTT5=
EXTT6=
EXTT7=
EXTT8=
EXTT9=
EXTT10=
PLAYORDER=
